# xmcd
#
# Track frame offsets:
#  150
#  13722
#  26042
#  35629
#  46105
#  56695
#  78214
#  95145
#  122848
#  140840
#  164928
#  182050
#  199582
#  213416
#  225596
#
# Disc length: 3172 seconds
#
# Revision: 0
# Processed by: cddbd v1.5.1PL2 Copyright (c) Steve Scherf et al.
# Submitted via: Collectorz.com_Music_Collector 6.9
#
DISCID=d70c620f
DTITLE=Various Artist - Soul Party Sessions [CD1]
DYEAR=1900
DGENRE=
TTITLE0=The Jackson 5 - I Want You Back
TTITLE1=The Isley Brothers - This Old Heart Of Mine
TTITLE2=James Brown - Papa's Got A Brand New Bag
TTITLE3=Etta James - Tell Mama
TTITLE4=Otis Redding - Hard To Handle
TTITLE5=Brother To Brother - Chance With You
TTITLE6=Cheryl Lynn - Got To Be Real
TTITLE7=Joyce Sims - All and All
TTITLE8=Teena Marie - Behind The Groove
TTITLE9=Rene and Angela - I'll Be Good
TTITLE10=Jocelyn Brown - Somebody Else's Guy
TTITLE11=Curtis Mayfield - Superfly
TTITLE12=Speedometer - Work It Out
TTITLE13=The Explosions - Garden Of Four Trees
TTITLE14=The Meters - Oh Calcutta!
EXTD=
EXTT0=
EXTT1=
EXTT2=
EXTT3=
EXTT4=
EXTT5=
EXTT6=
EXTT7=
EXTT8=
EXTT9=
EXTT10=
EXTT11=
EXTT12=
EXTT13=
EXTT14=
PLAYORDER=
